<svg width="91" height="37" viewBox="0 0 91 37" fill="none" xmlns="http://www.w3.org/2000/svg">
<path fill-rule="evenodd" clip-rule="evenodd" d="M11.6397 35.9357V16.9316H18.5769V11.25H11.6397V9.43772C11.6397 7.47854 12.9404 6.20507 14.9156 6.20507H18.5769V0.523438H14.0003C8.55651 0.523438 4.94337 3.90303 4.94337 9.04589V11.25H0.270386V16.9316H4.94337V35.9357H11.6397ZM30.6345 36.3275C38.1016 36.3275 43.449 30.9398 43.449 23.5928C43.449 16.2459 38.1016 10.8581 30.6345 10.8581C23.1673 10.8581 17.8199 16.2459 17.8199 23.5928C17.8199 30.9398 23.1673 36.3275 30.6345 36.3275ZM24.5644 23.5928C24.5644 27.6581 27.0213 30.45 30.6345 30.45C34.2476 30.45 36.7046 27.6581 36.7046 23.5928C36.7046 19.4785 34.2476 16.6867 30.6345 16.6867C27.0213 16.6867 24.5644 19.4785 24.5644 23.5928ZM52.4716 35.9357V0.523438H45.7752V35.9357H52.4716ZM56.0503 11.25H62.7948V35.9357H56.0503V11.25ZM77.5501 36.3275C85.0173 36.3275 90.3647 30.9398 90.3647 23.5928C90.3647 16.2459 85.0173 10.8581 77.5501 10.8581C70.083 10.8581 64.7356 16.2459 64.7356 23.5928C64.7356 30.9398 70.083 36.3275 77.5501 36.3275ZM71.4801 23.5928C71.4801 27.6581 73.937 30.45 77.5501 30.45C81.1633 30.45 83.6202 27.6581 83.6202 23.5928C83.6202 19.4785 81.1633 16.6867 77.5501 16.6867C73.937 16.6867 71.4801 19.4785 71.4801 23.5928Z" fill="black"/>
</svg>
