<svg width="17" height="17" viewBox="0 0 17 17" fill="none" xmlns="http://www.w3.org/2000/svg">
<path fill-rule="evenodd" clip-rule="evenodd" d="M15.9231 5L16.1741 5.436L10.0001 9L16.1741 12.561L15.9231 12.994C14.1137 16.1311 10.4226 17.6614 6.92428 16.7249C3.42599 15.7883 0.993164 12.6185 0.993164 8.997C0.993164 5.37551 3.42599 2.2057 6.92428 1.26915C10.4226 0.332593 14.1137 1.86292 15.9231 5ZM10.5001 4.5C9.94781 4.5 9.5001 4.94772 9.5001 5.5C9.5001 6.05229 9.94781 6.5 10.5001 6.5C11.0524 6.5 11.5001 6.05229 11.5001 5.5C11.5001 4.94772 11.0524 4.5 10.5001 4.5Z" fill="white"/>
</svg>
