<svg width="16" height="16" viewBox="0 0 16 16" fill="none" xmlns="http://www.w3.org/2000/svg">
<path fill-rule="evenodd" clip-rule="evenodd" d="M12 10C10.9932 10.0001 10.0538 10.5062 9.49999 11.347C8.55336 10.885 7.44663 10.885 6.49999 11.347C5.70665 10.134 4.16085 9.65948 2.82357 10.2185C1.48628 10.7776 0.738134 12.2111 1.04422 13.6279C1.35031 15.0446 2.62352 16.0414 4.07233 15.9985C5.52114 15.9557 6.73319 14.8854 6.95499 13.453C7.54182 12.8978 8.46017 12.8978 9.04699 13.453C9.29097 15.0297 10.7281 16.1383 12.315 15.9741C13.902 15.8099 15.0816 14.4305 14.9976 12.8373C14.9136 11.2441 13.5954 9.9964 12 10ZM3.99999 14C3.44771 14 2.99999 13.5523 2.99999 13C2.99999 12.4477 3.44771 12 3.99999 12C4.55228 12 4.99999 12.4477 4.99999 13C4.99999 13.5523 4.55228 14 3.99999 14ZM11 13C11 13.5523 11.4477 14 12 14C12.5523 14 13 13.5523 13 13C13 12.4477 12.5523 12 12 12C11.4477 12 11 12.4477 11 13Z" fill="white"/>
<path d="M12.8 4L12 0H3.99995L3.19995 4H12.8Z" fill="white"/>
<path d="M13 5H3L0 8H16L13 5Z" fill="white"/>
</svg>
