<svg width="375" height="357" viewBox="0 0 375 357" fill="none" xmlns="http://www.w3.org/2000/svg">
<mask id="mask0_0_1917" style="mask-type:alpha" maskUnits="userSpaceOnUse" x="0" y="0" width="375" height="357">
<rect width="375" height="357" fill="white"/>
</mask>
<g mask="url(#mask0_0_1917)">
<path d="M223.677 -15.9834C202.137 -11.3365 184.944 6.16249 178.533 26.9421C171.894 48.4689 178.604 71.0631 195.177 86.1496C211.181 100.702 235.027 107.57 255.735 99.6137C275.105 92.17 291.934 70.9421 282.584 49.7213C274.685 31.8025 251.273 21.3273 232.985 29.1481C214.697 36.9689 205.809 58.8586 209.153 77.7595C213.38 101.606 236.55 114.764 257.735 121.432C283.395 129.559 313.29 130.755 334.311 149.456C350.884 164.201 359.01 187.173 357.36 209.112C356.604 220.106 353.119 230.739 347.219 240.047C340.694 250.145 329.557 258.791 317.275 259.972C303.612 261.289 293.792 250.806 292.803 237.648C291.728 223.181 300.495 210.535 308.828 199.555C324.747 178.59 345.12 157.718 371.563 151.257C394.982 145.564 423.148 152.011 435.565 174.306C449.641 199.583 439.621 229.749 424.699 252.052C416.601 264.15 406.973 275.187 397.494 286.21C387.859 297.418 378.138 308.569 369.03 320.233C351.795 342.35 336.759 366.624 330.276 394.193C324.192 420.053 326.006 447.864 340.359 470.771C353.695 492.12 375.228 507.185 398.127 516.842C426.734 528.94 457.831 533.693 488.146 539.486L585.38 558.074L632.004 566.983C633.007 567.176 633.427 565.638 632.431 565.439L536.364 547.072C505.11 541.101 473.636 535.814 442.596 528.812C414.964 522.571 387.247 513.483 364.881 495.5C354.976 487.537 346.266 477.98 339.939 466.907C333.148 454.811 329.29 441.291 328.675 427.433C325.579 367.151 370.225 320.959 406.325 278.339C423.518 258.029 441.194 235.414 443.556 207.888C444.588 195.99 442.702 183.55 436.732 173.082C431.232 163.636 422.73 156.302 412.58 152.246C390.677 143.244 366.006 148.133 346.522 160.536C335.634 167.489 326.148 176.441 317.68 186.119C309.034 196.011 299.99 206.878 294.738 219.011C290.269 229.344 289.252 242.075 295.841 251.796C301.733 260.478 312.165 263.224 322.035 260.741C343.533 255.332 355.951 233.564 358.576 212.884C361.174 192.375 355.175 170.634 341.768 154.808C324.69 134.676 298.033 129.844 273.66 124.051C250.576 118.571 222.233 109.327 212.818 84.9968C205.296 65.5622 213.366 39.8083 232.935 30.913C252.704 21.9108 279.645 35.8944 283.26 57.4496C287.601 83.2818 259.378 101.642 236.571 101.379C213.764 101.115 191.463 86.4343 182.062 65.6405C172.292 43.9927 179.152 18.374 195.327 1.76461C203.107 -6.34641 213.112 -11.9764 224.083 -14.4178C225.1 -14.6384 224.659 -16.1756 223.677 -15.9834Z" fill="url(#paint0_linear_0_1917)"/>
</g>
<defs>
<linearGradient id="paint0_linear_0_1917" x1="571.246" y1="567" x2="571.246" y2="141.561" gradientUnits="userSpaceOnUse">
<stop stop-color="#323259" stop-opacity="0.01"/>
<stop offset="1" stop-color="#323259"/>
</linearGradient>
</defs>
</svg>
