<svg width="1440" height="471" viewBox="0 0 1440 471" fill="none" xmlns="http://www.w3.org/2000/svg">
<mask id="mask0_0_1222" style="mask-type:alpha" maskUnits="userSpaceOnUse" x="0" y="0" width="1440" height="471">
<rect y="0.659302" width="1440" height="470" fill="white"/>
</mask>
<g mask="url(#mask0_0_1222)">
<path d="M-36.9 440.049C-22.53 473.349 15.2 494.359 51 485.659C68.4162 481.41 83.8102 471.231 94.54 456.869C105.062 442.386 109.577 424.395 107.14 406.659C104.89 389.569 96.69 373.029 83.4 361.859C71.17 351.569 53.78 346.299 38 349.859C21.64 353.589 11.05 367.569 10.31 384.089C9.49999 402.209 18.51 419.779 31 432.359C44.17 445.549 62.37 453.939 81.18 450.489C99.99 447.039 112.26 432.349 115.07 413.819C118.39 391.959 109.77 371.169 105.85 350.029C102.455 331.501 104.138 312.399 110.72 294.749C123.27 260.619 152.5 231.969 188.24 223.379C207.8 218.679 230.62 219.679 247.33 231.949C262.54 243.119 268.97 263.199 265.27 281.429C261.53 299.839 247.42 313.379 229.13 317.209C211 320.999 191.32 314.929 180.28 299.659C169.69 285.029 167.8 265.039 173.6 248.159C180 229.659 196 216.119 214.1 209.659C255.1 195.149 297.16 217.229 323.38 248.579C350.84 281.409 364.09 323.059 388.38 357.929C409.33 388.019 443.38 417.199 482.38 414.769C521 412.399 548 379.119 559.89 344.929C575.04 301.379 572.61 253.929 585.67 209.839C597.39 170.259 623.86 130.679 666.67 121.309C686.131 116.862 706.559 121.441 722.26 133.769C736.82 145.209 747.12 163.099 745.17 182.039C743.17 201.639 728.66 218.379 711.03 226.229C690.03 235.569 664.89 232.509 644.82 222.229C612.51 205.659 592 169.659 592 133.589C592.08 91.0092 622.6 56.7491 656.34 34.5392C675.07 22.2191 695.34 12.5392 715.57 2.94916C716.88 2.32916 715.74 0.38916 714.43 0.949158C674.91 19.7592 633.26 39.9492 608.01 77.3792C597.39 93.0992 590.5 111.279 589.81 130.379C589.332 147.837 593.274 165.133 601.27 180.659C618.33 214.209 654.57 238.299 693.1 233.389C711.58 231.039 728.66 221.119 738.94 205.389C748.644 190.798 750.177 172.246 743 156.259C735.77 140.159 721.31 127.629 704.92 121.449C687.52 114.879 668.24 116.719 651.31 123.869C612.31 140.349 590.91 179.199 580.97 218.479C575.35 240.649 572.83 263.379 569.88 286.019C566.78 309.869 562.99 334.239 552.96 356.319C544.79 374.319 532.23 390.969 515.39 401.619C498.122 412.539 476.985 415.484 457.39 409.699C415.88 397.699 389.88 359.799 370.7 323.699C351.07 286.759 333.26 246.539 297.7 221.919C281.27 210.539 261.7 202.919 241.52 202.799C223.24 202.679 204.71 208.639 190.52 220.309C176.85 231.44 168.663 247.94 168.07 265.559C167.53 281.859 173.5 298.799 186.23 309.429C198.96 320.059 217 322.929 232.77 318.659C248.96 314.269 261.77 302.279 266.45 286.089C270.99 270.399 268.1 252.399 258.1 239.369C246.39 224.099 226.46 218.259 207.88 218.599C172.02 219.269 139.41 241.029 120.32 270.599C110.69 285.37 104.579 302.154 102.46 319.659C101.449 328.522 101.611 337.479 102.94 346.299C104.77 358.449 108.5 370.199 111.05 382.199C115.38 402.609 115.72 428.859 96.36 442.019C77.66 454.739 53.36 448.809 37.16 435.019C22.16 422.199 10.77 402.269 12.71 381.969C13.63 372.389 18.18 363.279 26.1 357.599C33.45 352.329 42.69 350.599 51.6 351.209C92.65 354.209 114.36 402.029 101.95 438.149C95.39 457.189 79.7 472.409 61.2 480.029C42.6217 487.664 21.6843 487.105 3.53999 478.489C-13.664 470.403 -27.343 456.34 -34.95 438.919C-35.53 437.589 -37.47 438.739 -36.9 440.049Z" fill="url(#paint0_linear_0_1222)"/>
</g>
<defs>
<linearGradient id="paint0_linear_0_1222" x1="747.474" y1="66.6272" x2="175.008" y2="66.6272" gradientUnits="userSpaceOnUse">
<stop stop-color="#323259" stop-opacity="0.01"/>
<stop offset="1" stop-color="#323259"/>
</linearGradient>
</defs>
</svg>
