<svg width="11" height="11" viewBox="0 0 11 11" fill="none" xmlns="http://www.w3.org/2000/svg">
<path fill-rule="evenodd" clip-rule="evenodd" d="M11 5.53351C11.0006 2.5904 8.71035 0.161999 5.78848 0.00772548C2.86662 -0.146548 0.33617 2.02731 0.0304825 4.95432C-0.275205 7.88133 1.7509 10.5367 4.64085 10.9965V7.13231H3.24458V5.53351H4.64085V4.31435C4.57998 3.73819 4.77679 3.16461 5.17801 2.74887C5.57923 2.33313 6.14336 2.11823 6.71771 2.16233C7.13021 2.16778 7.54175 2.20384 7.94898 2.27021V3.6332H7.25601C7.01689 3.60175 6.77653 3.68131 6.6027 3.84943C6.42887 4.01756 6.34042 4.25604 6.36229 4.49761V5.53489H7.8878L7.64374 7.13369H6.35954V11C9.03285 10.5746 11.0011 8.25599 11 5.53351Z" fill="white"/>
</svg>
