<svg width="61" height="25" viewBox="0 0 61 25" fill="none" xmlns="http://www.w3.org/2000/svg">
<path fill-rule="evenodd" clip-rule="evenodd" d="M8.37142 23.9569V11.2876H12.9914V7.4998H8.37142V6.29164C8.37142 4.98552 9.23767 4.13654 10.5531 4.13654H12.9914V0.348785H9.94349C6.3181 0.348785 3.91187 2.60185 3.91187 6.03042V7.4998H0.799805V11.2876H3.91187V23.9569H8.37142ZM21.0213 24.2182C25.9942 24.2182 29.5554 20.6263 29.5554 15.7284C29.5554 10.8304 25.9942 7.23858 21.0213 7.23858C16.0485 7.23858 12.4872 10.8304 12.4872 15.7284C12.4872 20.6263 16.0485 24.2182 21.0213 24.2182ZM16.9788 15.7284C16.9788 18.4386 18.6151 20.2998 21.0213 20.2998C23.4275 20.2998 25.0638 18.4386 25.0638 15.7284C25.0638 12.9855 23.4275 11.1243 21.0213 11.1243C18.6151 11.1243 16.9788 12.9855 16.9788 15.7284ZM35.5642 23.9569V0.348785H31.1046V23.9569H35.5642ZM37.9475 7.4998H42.4391V23.9569H37.9475V7.4998ZM52.2657 24.2182C57.2386 24.2182 60.7998 20.6263 60.7998 15.7284C60.7998 10.8304 57.2386 7.23858 52.2657 7.23858C47.2928 7.23858 43.7316 10.8304 43.7316 15.7284C43.7316 20.6263 47.2928 24.2182 52.2657 24.2182ZM48.2232 15.7284C48.2232 18.4386 49.8595 20.2998 52.2657 20.2998C54.6719 20.2998 56.3082 18.4386 56.3082 15.7284C56.3082 12.9855 54.6719 11.1243 52.2657 11.1243C49.8595 11.1243 48.2232 12.9855 48.2232 15.7284Z" fill="white"/>
</svg>
