<svg width="643" height="820" viewBox="0 0 643 820" fill="none" xmlns="http://www.w3.org/2000/svg">
<path opacity="0.1" d="M66.9994 0.0232937C36.7294 6.55329 12.5694 31.1433 3.55937 60.3433C-5.77063 90.5933 3.65937 122.343 26.9494 143.543C49.4394 163.993 82.9494 173.643 112.049 162.463C139.269 152.003 162.919 122.173 149.779 92.3533C138.679 67.1733 105.779 52.4533 80.0794 63.4433C54.3794 74.4333 41.8894 105.193 46.5894 131.753C52.5294 165.263 85.0894 183.753 114.859 193.123C150.919 204.543 192.929 206.223 222.469 232.503C245.759 253.223 257.179 285.503 254.859 316.333C253.798 331.783 248.9 346.724 240.609 359.803C231.439 373.993 215.789 386.143 198.529 387.803C179.329 389.653 165.529 374.923 164.139 356.433C162.629 336.103 174.949 318.333 186.659 302.903C209.029 273.443 237.659 244.113 274.819 235.033C307.729 227.033 347.309 236.093 364.759 267.423C384.539 302.943 370.459 345.333 349.489 376.673C338.109 393.673 324.579 409.183 311.259 424.673C297.719 440.423 284.059 456.093 271.259 472.483C247.039 503.563 225.909 537.673 216.799 576.413C208.249 612.753 210.799 651.833 230.969 684.023C249.709 714.023 279.969 735.193 312.149 748.763C352.349 765.763 396.049 772.443 438.649 780.583L575.289 806.703L640.809 819.223C642.219 819.493 642.809 817.333 641.409 817.053L506.409 791.243C462.489 782.853 418.259 775.423 374.639 765.583C335.809 756.813 296.859 744.043 265.429 718.773C251.509 707.583 239.269 694.153 230.379 678.593C220.836 661.596 215.414 642.597 214.549 623.123C210.199 538.413 272.939 473.503 323.669 413.613C347.829 385.073 372.669 353.293 375.989 314.613C377.439 297.893 374.789 280.413 366.399 265.703C358.67 252.43 346.723 242.123 332.459 236.423C301.679 223.773 267.009 230.643 239.629 248.073C224.329 257.843 210.999 270.423 199.099 284.023C186.949 297.923 174.239 313.193 166.859 330.243C160.579 344.763 159.149 362.653 168.409 376.313C176.689 388.513 191.349 392.373 205.219 388.883C235.429 381.283 252.879 350.693 256.569 321.633C260.219 292.813 251.789 262.263 232.949 240.023C208.949 211.733 171.489 204.943 137.239 196.803C104.799 189.103 64.9694 176.113 51.7394 141.923C41.1694 114.613 52.5094 78.4233 80.0094 65.9233C107.789 53.2733 145.649 72.9233 150.729 103.213C156.829 139.513 117.169 165.313 85.1194 164.943C53.0694 164.573 21.7294 143.943 8.51937 114.723C-5.21063 84.3033 4.42937 48.3033 27.1594 24.9633C38.0932 13.5655 52.1522 5.654 67.5694 2.22329C68.9994 1.91329 68.3794 -0.246706 66.9994 0.0232937Z" fill="#D1ECFD"/>
</svg>
