<svg width="281" height="583" viewBox="0 0 281 583" fill="none" xmlns="http://www.w3.org/2000/svg">
<path d="M47.644 0.0165644C26.1187 4.66012 8.93822 22.1463 2.53111 42.9108C-4.10356 64.4219 2.60222 86.9997 19.164 102.075C35.1569 116.617 58.9862 123.48 79.6796 115.529C99.036 108.091 115.854 86.8788 106.51 65.6735C98.6164 47.7677 75.2209 37.3001 56.9453 45.1152C38.6698 52.9303 29.788 74.8041 33.1302 93.6912C37.3542 117.521 60.508 130.669 81.6778 137.332C107.32 145.453 137.194 146.648 158.2 165.336C174.762 180.07 182.883 203.025 181.233 224.948C180.479 235.934 176.996 246.559 171.1 255.86C164.579 265.951 153.45 274.591 141.176 275.771C127.523 277.087 117.71 266.612 116.721 253.464C115.648 239.007 124.408 226.37 132.736 215.398C148.643 194.449 169.002 173.592 195.427 167.135C218.83 161.446 246.976 167.889 259.384 190.168C273.45 215.426 263.438 245.57 248.526 267.857C240.433 279.945 230.812 290.975 221.34 301.99C211.712 313.19 201.998 324.333 192.896 335.988C175.672 358.089 160.647 382.345 154.168 409.894C148.088 435.736 149.902 463.526 164.245 486.417C177.571 507.75 199.089 522.804 221.973 532.454C250.56 544.543 281.635 549.293 311.928 555.081L409.095 573.656L455.687 582.559C456.689 582.751 457.109 581.215 456.113 581.016L360.113 562.662C328.881 556.696 297.429 551.412 266.41 544.415C238.798 538.178 211.1 529.097 188.75 511.128C178.851 503.17 170.147 493.62 163.825 482.555C157.039 470.469 153.183 456.958 152.568 443.11C149.475 382.872 194.09 336.713 230.165 294.125C247.345 273.83 265.009 251.231 267.37 223.725C268.401 211.835 266.517 199.405 260.551 188.945C255.054 179.506 246.558 172.176 236.416 168.123C214.528 159.128 189.873 164.013 170.403 176.408C159.523 183.355 150.044 192.301 141.582 201.972C132.942 211.857 123.904 222.715 118.656 234.84C114.19 245.165 113.173 257.887 119.758 267.601C125.646 276.276 136.071 279.021 145.934 276.539C167.416 271.135 179.825 249.382 182.449 228.717C185.045 208.223 179.05 186.498 165.653 170.683C148.586 150.566 121.948 145.737 97.5924 139.949C74.524 134.473 46.2004 125.236 36.7924 100.923C29.276 81.5028 37.34 55.7677 56.8956 46.8788C76.6502 37.8832 103.573 51.8566 107.185 73.3961C111.523 99.2094 83.3204 117.556 60.5293 117.293C37.7382 117.03 15.452 102.36 6.05822 81.581C-3.70533 59.949 3.14978 34.349 19.3133 17.7517C27.0885 9.64656 37.086 4.02062 48.0493 1.58101C49.0662 1.36056 48.6253 -0.175436 47.644 0.0165644Z" fill="url(#paint0_linear_0_2431)"/>
<defs>
<linearGradient id="paint0_linear_0_2431" x1="394.971" y1="582.575" x2="394.971" y2="157.446" gradientUnits="userSpaceOnUse">
<stop stop-color="#323259" stop-opacity="0.6"/>
<stop offset="1" stop-color="#323259"/>
</linearGradient>
</defs>
</svg>
