<svg width="12" height="9" viewBox="0 0 12 9" fill="none" xmlns="http://www.w3.org/2000/svg">
<path fill-rule="evenodd" clip-rule="evenodd" d="M11.1387 1.99111C10.9977 1.06667 10.5747 0.426667 9.58774 0.284444C8.03678 0 5.63985 0 5.63985 0C5.63985 0 3.24291 0 1.69195 0.284444C0.704981 0.426667 0.211494 1.06667 0.140996 1.99111C0 2.91556 0 4.26667 0 4.26667C0 4.26667 0 5.61778 0.140996 6.54222C0.281992 7.46667 0.704981 8.10667 1.69195 8.24889C3.24291 8.53333 5.63985 8.53333 5.63985 8.53333C5.63985 8.53333 8.03678 8.53333 9.58774 8.24889C10.5747 8.03556 10.9977 7.46667 11.1387 6.54222C11.2797 5.61778 11.2797 4.26667 11.2797 4.26667C11.2797 4.26667 11.2797 2.91556 11.1387 1.99111ZM4.22989 6.4V2.13333L7.75479 4.26667L4.22989 6.4Z" fill="#ADADAD"/>
</svg>
