<svg width="12" height="12" viewBox="0 0 12 12" fill="none" xmlns="http://www.w3.org/2000/svg">
<path fill-rule="evenodd" clip-rule="evenodd" d="M8.45977 11.3778H2.81992C1.37048 11.3778 0 9.99538 0 8.53333V2.84444C0 1.3824 1.37048 0 2.81992 0H8.45977C9.90921 0 11.2797 1.3824 11.2797 2.84444V8.53333C11.2797 9.99538 9.90921 11.3778 8.45977 11.3778ZM2.81992 1.42222C2.16077 1.42222 1.40996 2.17956 1.40996 2.84444V8.53333C1.40996 9.21102 2.14808 9.95556 2.81992 9.95556H8.45977C9.11893 9.95556 9.86973 9.19822 9.86973 8.53333V2.84444C9.86973 2.17956 9.11893 1.42222 8.45977 1.42222H2.81992Z" fill="#ADADAD"/>
</svg>
